<?xml version="1.0" encoding="UTF-8" standalone="no"?>
<svg
   width="1024"
   height="1024"
   viewBox="0 0 1024 1024"
   fill="none"
   version="1.1"
   id="svg4"
   sodipodi:docname="github.svg"
   inkscape:version="1.1.1 (3bf5ae0d25, 2021-09-20)"
   xmlns:inkscape="http://www.inkscape.org/namespaces/inkscape"
   xmlns:sodipodi="http://sodipodi.sourceforge.net/DTD/sodipodi-0.dtd"
   xmlns="http://www.w3.org/2000/svg"
   xmlns:svg="http://www.w3.org/2000/svg">
  <defs
     id="defs8" />
  <sodipodi:namedview
     id="namedview6"
     pagecolor="#505050"
     bordercolor="#eeeeee"
     borderopacity="1"
     inkscape:pageshadow="0"
     inkscape:pageopacity="0"
     inkscape:pagecheckerboard="0"
     showgrid="false"
     inkscape:zoom="0.56899999"
     inkscape:cx="684.53428"
     inkscape:cy="464.85062"
     inkscape:window-width="1920"
     inkscape:window-height="1009"
     inkscape:window-x="-8"
     inkscape:window-y="-8"
     inkscape:window-maximized="1"
     inkscape:current-layer="svg4" />
  <path
     fill-rule="evenodd"
     clip-rule="evenodd"
     d="M8 0C3.58 0 0 3.58 0 8C0 11.54 2.29 14.53 5.47 15.59C5.87 15.66 6.02 15.42 6.02 15.21C6.02 15.02 6.01 14.39 6.01 13.72C4 14.09 3.48 13.23 3.32 12.78C3.23 12.55 2.84 11.84 2.5 11.65C2.22 11.5 1.82 11.13 2.49 11.12C3.12 11.11 3.57 11.7 3.72 11.94C4.44 13.15 5.59 12.81 6.05 12.6C6.12 12.08 6.33 11.73 6.56 11.53C4.78 11.33 2.92 10.64 2.92 7.58C2.92 6.71 3.23 5.99 3.74 5.43C3.66 5.23 3.38 4.41 3.82 3.31C3.82 3.31 4.49 3.1 6.02 4.13C6.66 3.95 7.34 3.86 8.02 3.86C8.7 3.86 9.38 3.95 10.02 4.13C11.55 3.09 12.22 3.31 12.22 3.31C12.66 4.41 12.38 5.23 12.3 5.43C12.81 5.99 13.12 6.7 13.12 7.58C13.12 10.65 11.25 11.33 9.47 11.53C9.76 11.78 10.01 12.26 10.01 13.01C10.01 14.08 10 14.94 10 15.21C10 15.42 10.15 15.67 10.55 15.59C13.71 14.53 16 11.53 16 8C16 3.58 12.42 0 8 0Z"
     transform="scale(64)"
     fill="#1B1F23"
     id="path2" />
  <path
     style="fill:#b3b3b3;stroke-width:1.24272"
     d="M 352.31068,997.19398 C 344.95413,996.04264 309.76135,982.13914 290.17476,972.64614 208.22963,932.92993 137.3895,871.41355 86.710447,795.96117 41.457005,728.58658 13.385615,651.60694 3.553815,567.92233 0.46644057,541.64376 0.45640016,482.05773 3.5349687,456.07767 15.649427,353.8437 54.115857,263.52127 119.1756,184.54369 c 20.12169,-24.4262 56.0822,-58.72034 83.76036,-79.87897 44.05139,-33.675217 98.08902,-61.995081 150.80286,-79.032265 83.3867,-26.9506945 171.96177,-32.0854 258.99422,-15.013921 84.11904,16.500011 163.70255,55.246586 231.07279,112.501706 89.46835,76.03537 150.21021,181.51928 171.33547,297.53995 6.0142,33.03029 7.5217,51.33703 7.5217,91.33981 0,40.03199 -1.5143,58.39704 -7.5313,91.33981 -29.02363,158.90182 -131.0143,294.6687 -275.41407,366.62283 -23.48395,11.70201 -56.43675,25.21558 -67.0258,27.48652 -12.80343,2.74584 -24.95024,-2.63205 -29.73458,-13.16474 -2.13924,-4.70954 -2.283,-10.17763 -2.3086,-87.81096 -0.0291,-88.17518 -0.30744,-93.133 -6.37618,-113.56084 -3.64902,-12.2829 -12.44223,-28.72485 -19.74271,-36.9158 -3.42049,-3.83771 -6.21908,-7.23519 -6.21908,-7.54997 0,-0.31477 4.05437,-0.96942 9.00971,-1.45478 21.71266,-2.12665 54.90693,-9.55158 78.04536,-17.45727 17.74943,-6.06443 45.47823,-20.06127 58.86893,-29.71563 45.53565,-32.83012 72.5903,-81.54387 82.19288,-147.99393 3.03176,-20.97984 4.4638,-56.51037 2.9802,-73.94174 -3.72646,-43.78321 -17.95574,-79.73183 -44.42963,-112.24621 l -6.90396,-8.47922 2.63632,-8.29748 c 6.71856,-21.14586 9.04829,-54.65985 5.41448,-77.88972 -1.79439,-11.47101 -7.70088,-34.43438 -11.18755,-43.49514 l -2.39105,-6.21359 -12.24406,-0.37533 c -29.73918,-0.91163 -74.90478,16.72004 -120.36056,46.98617 l -8.69903,5.79213 -8.69903,-2.2528 c -16.39436,-4.24566 -38.53547,-8.46133 -59.02913,-11.23917 -17.64889,-2.39224 -26.04368,-2.77936 -60.27184,-2.77936 -33.90295,0 -42.69901,0.39841 -59.65049,2.7018 -20.05962,2.72573 -43.64162,7.18907 -59.64284,11.28853 l -8.69137,2.22671 -11.81348,-7.64103 c -26.84618,-17.36426 -53.45841,-30.43016 -78.13171,-38.36061 -16.30054,-5.23928 -28.84805,-7.26746 -41.73736,-6.74645 l -9.88083,0.39941 -4.68148,14.43893 c -7.14964,22.05139 -10.11226,40.44279 -10.08563,62.60961 0.0246,20.45818 1.27887,30.24749 6.07206,47.39035 l 3.17391,11.3515 -9.77725,12.88151 c -32.41372,42.70498 -44.33189,84.96463 -41.32324,146.52465 2.23156,45.65999 9.76591,78.62837 25.40652,111.17238 9.29992,19.3507 17.15488,31.18664 30.12149,45.38738 27.67713,30.31137 60.92502,49.53475 108.46694,62.7138 16.35,4.53237 43.5419,9.8774 57.55137,11.31271 4.57199,0.46842 8.31271,1.05123 8.31271,1.29515 0,0.24392 -2.78439,3.89888 -6.18753,8.12214 -10.87278,13.493 -17.72025,28.77132 -22.17445,49.4765 l -2.26028,10.50685 -11.24814,3.99501 c -17.17031,6.09839 -28.91525,8.22181 -45.74125,8.26976 -22.73857,0.0647 -38.68407,-4.70971 -56.24068,-16.83993 -11.90422,-8.22488 -21.813,-19.01452 -33.73539,-36.73433 -16.40089,-24.37604 -30.86001,-38.12995 -49.2084,-46.80839 -12.30566,-5.82033 -19.94867,-7.29739 -34.01057,-6.57277 -13.28133,0.6844 -17.85977,2.23065 -19.90659,6.72294 -2.9188,6.40607 4.8257,15.95765 21.85503,26.95463 4.64776,3.00138 10.93003,7.90883 13.96057,10.90546 12.97327,12.82806 29.85071,39.16828 40.07813,62.54897 13.57507,31.03367 30.81211,47.32811 60.72608,57.4053 27.25389,9.18107 59.47363,10.23048 105.91985,3.44986 l 5.9429,-0.8676 -0.35066,51.52906 -0.35066,51.52906 -3.41887,5.16447 c -5.55418,8.39007 -15.79839,12.04882 -28.27045,10.09688 z"
     id="path349" />
</svg>
