<?xml version="1.0" encoding="UTF-8" standalone="no"?>
<svg
   viewBox="0 0 512 512"
   version="1.1"
   id="svg14"
   sodipodi:docname="html5.svg"
   inkscape:version="1.1.1 (3bf5ae0d25, 2021-09-20)"
   xmlns:inkscape="http://www.inkscape.org/namespaces/inkscape"
   xmlns:sodipodi="http://sodipodi.sourceforge.net/DTD/sodipodi-0.dtd"
   xmlns="http://www.w3.org/2000/svg"
   xmlns:svg="http://www.w3.org/2000/svg">
  <defs
     id="defs18" />
  <sodipodi:namedview
     id="namedview16"
     pagecolor="#505050"
     bordercolor="#eeeeee"
     borderopacity="1"
     inkscape:pageshadow="0"
     inkscape:pageopacity="0"
     inkscape:pagecheckerboard="0"
     showgrid="false"
     inkscape:zoom="1.138"
     inkscape:cx="322.05625"
     inkscape:cy="253.51494"
     inkscape:window-width="1920"
     inkscape:window-height="1009"
     inkscape:window-x="-8"
     inkscape:window-y="-8"
     inkscape:window-maximized="1"
     inkscape:current-layer="svg14" />
  <title
     id="title2">HTML5 Logo</title>
  <path
     d="M108.4 0h23v22.8h21.2V0h23v69h-23V46h-21v23h-23.2M206 23h-20.3V0h63.7v23H229v46h-23M259.5 0h24.1l14.8 24.3L313.2 0h24.1v69h-23V34.8l-16.1 24.8l-16.1-24.8v34.2h-22.6M348.7 0h23v46.2h32.6V69h-55.6"
     id="path4" />
  <path
     fill="#e44d26"
     d="M107.6 471l-33-370.4h362.8l-33 370.2L255.7 512"
     id="path6" />
  <path
     fill="#f16529"
     d="M256 480.5V131H404.3L376 447"
     id="path8" />
  <path
     fill="#ebebeb"
     d="M142 176.3h114v45.4h-64.2l4.2 46.5h60v45.3H154.4M156.4 336.3H202l3.2 36.3 50.8 13.6v47.4l-93.2-26"
     id="path10" />
  <path
     fill="#fff"
     d="M369.6 176.3H255.8v45.4h109.6M361.3 268.2H255.8v45.4h56l-5.3 59-50.7 13.6v47.2l93-25.8"
     id="path12" />
  <path
     style="fill:#999999;stroke-width:0.878735"
     d="M 108.52373,34.710018 V 0.43936732 h 11.42355 11.42355 V 11.862918 23.286468 h 10.98418 10.98418 V 11.862918 0.43936732 h 10.98419 10.98418 V 34.710018 68.980669 H 164.32338 153.33919 V 57.117752 45.254834 h -10.98418 -10.98418 v 11.862918 11.862917 h -11.42355 -11.42355 z"
     id="path94" />
  <path
     style="fill:#999999;stroke-width:0.878735"
     d="M 206.06327,45.694201 V 22.407733 H 195.95782 185.85238 V 11.42355 0.43936732 h 31.63444 31.63445 V 11.42355 22.407733 h -10.10545 -10.10545 v 23.286468 23.286468 h -11.42355 -11.42355 z"
     id="path133" />
  <path
     style="fill:#999999;stroke-width:0.878735"
     d="M 259.66609,34.710018 V 0.43936732 h 11.81501 11.81501 l 7.22208,11.86291768 c 3.97214,6.524605 7.52232,11.862918 7.88928,11.862918 0.36697,0 3.92009,-5.338313 7.89583,-11.862918 l 7.22863,-11.86291768 h 11.7314 11.7314 V 34.710018 68.980669 H 326.01055 315.02637 V 51.845344 c 0,-9.424429 -0.29657,-17.131515 -0.65905,-17.126857 -0.36248,0.0047 -4.14195,5.398973 -8.39883,11.987367 l -7.73977,11.978899 -8.07745,-12.207052 -8.07745,-12.20705 -0.23826,17.355009 -0.23826,17.355009 h -10.96561 -10.9656 z"
     id="path172" />
  <path
     style="fill:#999999;stroke-width:0.878735"
     d="M 349.29702,34.710018 V 0.43936732 h 10.98418 10.98419 V 23.725835 47.012303 h 16.25659 16.25659 v 10.984183 10.984183 h -27.24078 -27.24077 z"
     id="path211" />
  <path
     style="fill:#999999;stroke-width:0.31068"
     d="M 108.58252,34.640777 V 0.46601942 h 11.33981 11.33981 V 11.961165 23.456311 h 11.18446 11.18447 V 11.961165 0.46601942 h 10.71844 10.71845 V 34.640777 68.815534 H 164.34951 153.63107 V 57.009709 45.203884 H 142.4466 131.26214 v 11.805825 11.805825 h -11.33981 -11.33981 z"
     id="path250" />
  <path
     style="fill:#999999;stroke-width:0.31068"
     d="M 108.58252,34.640777 V 0.46601942 h 11.33981 11.33981 V 11.961165 23.456311 h 11.18446 11.18447 V 11.961165 0.46601942 h 10.71844 10.71845 V 34.640777 68.815534 H 164.34951 153.63107 V 57.009709 45.203884 H 142.4466 131.26214 v 11.805825 11.805825 h -11.33981 -11.33981 z"
     id="path402" />
</svg>
